<?xml version="1.0" standalone="no"?>
<!DOCTYPE svg PUBLIC "-//W3C//DTD SVG 20010904//EN"
 "http://www.w3.org/TR/2001/REC-SVG-20010904/DTD/svg10.dtd">
<svg version="1.0" xmlns="http://www.w3.org/2000/svg"
 width="500.000000pt" height="500.000000pt" viewBox="0 0 500.000000 500.000000"
 preserveAspectRatio="xMidYMid meet">
<metadata>
Created by potrace 1.11, written by Peter Selinger 2001-2013
</metadata>
<g transform="translate(0.000000,500.000000) scale(0.100000,-0.100000)"
fill="#000000" stroke="none">
<path d="M2305 4930 c-158 -15 -298 -39 -322 -55 -43 -28 -20 -75 37 -75 28 0
17 -16 -28 -40 -36 -19 -36 -19 -9 -20 16 0 27 -5 27 -14 0 -8 20 -22 45 -31
61 -24 73 -40 50 -65 -21 -23 -23 -21 35 -50 25 -12 55 -32 68 -43 21 -20 22
-22 5 -28 -15 -6 -13 -8 10 -14 15 -4 27 -11 27 -16 0 -4 -36 -38 -80 -75 -44
-37 -82 -75 -85 -85 -4 -11 -10 -19 -14 -19 -4 0 -50 -27 -101 -60 -51 -33
-105 -60 -118 -60 -21 0 -23 -2 -11 -16 22 -26 -8 -36 -91 -29 -159 13 -201 1
-366 -106 -59 -38 -115 -68 -124 -67 -53 10 12 182 99 260 26 24 70 51 97 60
27 10 85 45 129 79 44 33 96 69 115 79 20 10 42 30 50 45 8 14 45 46 82 71 37
25 68 48 68 50 0 2 -11 2 -24 -2 -17 -4 -31 1 -45 15 -25 25 -48 27 -73 4 -16
-15 -18 -15 -18 0 0 22 -36 40 -66 33 -33 -9 -30 -26 3 -26 27 0 27 0 -17 -46
-83 -86 -340 -290 -340 -270 0 3 14 21 31 41 53 60 25 50 -42 -16 -52 -51
-109 -89 -134 -89 -3 0 -5 8 -5 18 0 10 20 37 44 61 25 24 50 57 57 72 9 23
15 27 29 19 23 -12 38 -6 134 55 l79 50 -42 3 c-29 2 -59 -5 -99 -23 -31 -15
-72 -34 -91 -42 l-33 -14 21 27 c30 39 28 58 -6 49 -79 -19 -217 -105 -252
-158 -9 -13 -56 -62 -106 -109 -92 -88 -110 -121 -38 -69 21 16 49 32 62 36
12 4 66 39 119 79 109 82 130 93 138 71 8 -19 -73 -115 -120 -144 -31 -20 -52
-48 -42 -58 2 -2 21 3 42 12 l39 16 -57 -53 c-44 -42 -67 -76 -110 -162 -45
-92 -62 -117 -115 -164 -48 -42 -68 -69 -93 -124 -29 -65 -32 -69 -45 -52 -32
42 -10 87 65 139 22 15 39 33 37 39 -6 19 -70 24 -90 7 -13 -11 -20 -12 -29
-3 -7 7 -15 12 -19 12 -11 0 -29 -59 -29 -95 0 -46 -19 -67 -59 -63 l-34 3 28
33 c36 42 24 56 -39 47 -40 -6 -52 -14 -83 -54 -21 -25 -65 -75 -99 -111 -34
-36 -73 -88 -86 -115 -68 -134 -141 -376 -179 -590 -27 -153 -37 -502 -20
-667 26 -239 91 -490 177 -677 26 -58 35 -86 26 -89 -9 -3 -12 -98 -12 -403
l0 -399 135 0 135 0 0 85 0 85 -75 0 -76 0 3 73 3 72 68 3 67 3 0 34 c0 43 8
44 41 2 22 -27 27 -45 31 -118 11 -178 110 -295 206 -245 17 9 36 24 41 33 10
16 11 16 17 -5 3 -12 13 -22 21 -22 8 0 48 -27 89 -59 290 -234 612 -394 964
-480 183 -44 313 -61 520 -67 l185 -6 -66 41 c-36 22 -83 59 -103 81 -53 59
-48 94 24 141 l25 17 -27 28 c-15 16 -40 58 -57 94 l-31 65 0 348 0 347 -65 0
c-58 0 -65 -2 -65 -20 0 -18 -2 -17 -26 5 -32 30 -101 34 -140 9 -55 -37 -104
-162 -104 -271 l0 -52 -30 10 -30 11 0 90 c0 112 -14 161 -57 198 -50 44 -113
39 -155 -14 -17 -20 -18 -12 -18 172 l0 192 -60 0 -60 0 0 -311 0 -310 -22 6
c-73 20 -78 25 -78 71 0 42 1 44 30 44 l30 0 0 85 0 85 -30 0 -30 0 0 80 0 80
-65 0 -65 0 0 -80 c0 -73 -2 -80 -20 -80 -18 0 -20 -7 -20 -85 0 -78 2 -85 20
-85 11 0 20 -7 20 -16 0 -16 -12 -12 -42 14 -14 12 -18 31 -18 94 l0 78 -33 0
c-18 0 -43 -7 -56 -16 -22 -16 -24 -15 -46 12 -72 89 -125 211 -126 292 -1 26
8 79 20 117 16 50 21 91 20 143 -1 41 2 77 8 80 5 4 43 48 85 97 42 50 89 102
104 117 34 31 93 58 129 58 21 0 25 5 25 28 0 36 17 60 117 163 45 48 83 91
83 97 0 18 -42 42 -74 42 l-29 0 6 74 c4 44 19 109 37 157 16 46 30 94 30 109
0 32 26 70 47 70 9 0 58 -14 108 -32 109 -38 131 -34 165 33 28 53 22 85 -30
169 -46 74 -41 83 36 74 64 -7 124 15 124 46 0 20 -3 21 -84 14 -46 -4 -96 -4
-111 0 l-27 7 37 29 c32 26 34 30 18 39 -16 10 -15 14 17 41 32 27 42 29 106
30 81 0 84 -3 84 -87 l0 -42 98 55 c53 31 101 60 107 65 5 5 125 9 272 9 l264
0 -153 -181 c-84 -100 -188 -224 -231 -275 -78 -93 -90 -103 -102 -84 -10 17
-43 11 -95 -15 -59 -30 -93 -32 -119 -6 -20 20 -21 19 -102 -62 -92 -92 -119
-130 -119 -168 0 -38 -78 -87 -161 -100 -35 -6 -65 -12 -67 -14 -3 -2 9 -17
25 -34 40 -39 86 -47 208 -33 55 6 101 10 102 8 2 -1 -33 -45 -76 -97 l-79
-94 72 -3 c39 -2 178 -6 310 -10 l238 -7 -295 -360 c-163 -198 -294 -362 -292
-364 2 -2 63 7 136 20 l131 23 201 220 c332 365 323 357 352 350 50 -12 72 2
90 58 26 80 40 98 78 98 19 0 47 -10 65 -24 24 -17 53 -25 114 -32 144 -14
156 -12 234 34 47 28 82 42 106 42 28 0 37 5 43 23 10 32 19 307 10 307 -4 0
-22 -9 -41 -20 -48 -30 -233 -86 -277 -84 -51 2 -64 16 -43 45 21 31 20 39 -6
39 -18 0 -29 12 -48 53 -31 65 -61 73 -120 32 -38 -26 -39 -28 -23 -51 l15
-24 -60 0 -60 0 -40 65 -41 64 271 328 c149 181 283 342 297 359 14 17 40 49
57 70 18 21 66 82 109 133 66 82 74 96 58 102 -10 3 -139 16 -288 29 -598 49
-550 43 -547 65 2 11 15 37 30 59 68 97 68 102 -3 92 -37 -6 -45 -11 -45 -28
0 -12 -17 -48 -37 -79 -30 -46 -43 -58 -63 -58 -68 1 -67 4 66 189 69 96 129
182 134 190 7 11 13 12 32 3 12 -7 39 -15 58 -19 62 -12 170 -73 170 -96 0 -4
-22 -8 -50 -8 -54 0 -58 -6 -36 -48 22 -42 57 -69 99 -75 41 -6 48 5 20 35
-10 12 -13 22 -7 26 10 7 34 91 34 119 0 9 -8 25 -17 36 -17 18 -17 19 12 15
26 -3 31 -8 36 -41 6 -40 31 -66 63 -67 17 0 18 6 12 70 -6 63 -4 70 12 70 10
0 23 -5 30 -12 8 -8 16 -5 31 13 54 64 33 89 -76 89 -107 0 -134 15 -161 85
-26 67 -28 108 -6 126 14 11 18 10 30 -6 8 -10 14 -32 14 -48 0 -43 26 -90 61
-111 20 -12 66 -21 136 -27 58 -5 108 -8 110 -6 2 3 -25 23 -60 46 -74 48
-122 95 -113 110 4 6 25 14 47 17 21 4 39 12 39 18 -1 11 -105 157 -136 188
-22 23 -9 38 34 38 78 0 108 29 62 58 -27 16 -25 40 5 84 14 20 25 41 25 47 0
17 -210 71 -376 96 -121 19 -437 27 -559 15z m-502 -956 c24 -7 33 -15 35 -36
6 -52 -94 -88 -146 -52 l-22 15 47 56 c30 35 49 50 51 41 1 -8 17 -18 35 -24z
m-13 -685 c-29 -19 -89 -49 -100 -49 -6 0 -2 14 10 30 18 25 28 30 63 30 32 0
38 -3 27 -11z m500 -609 c-6 -11 -13 -20 -16 -20 -2 0 0 9 6 20 6 11 13 20 16
20 2 0 0 -9 -6 -20z m365 -120 c3 -6 -1 -7 -9 -4 -18 7 -21 14 -7 14 6 0 13
-4 16 -10z m-2235 -1372 l21 -38 -40 0 -41 0 0 63 0 62 20 -25 c10 -14 29 -42
40 -62z m1347 -136 c20 -12 33 -60 33 -119 l0 -56 -37 7 c-21 3 -46 6 -57 6
-17 0 -18 6 -13 60 7 85 37 126 74 102z m454 -28 c21 -22 24 -35 24 -94 0 -78
-19 -110 -65 -110 -71 0 -93 169 -27 215 30 21 40 19 68 -11z"/>
<path d="M3728 3189 c-66 -35 -85 -105 -49 -185 19 -41 59 -78 118 -108 59
-30 65 -42 58 -117 -6 -64 -6 -67 16 -74 40 -13 102 -7 128 13 37 27 41 83 9
115 -13 13 -29 26 -34 28 -5 2 -33 38 -62 79 -31 45 -68 86 -91 100 -46 28
-46 28 -26 95 24 78 6 93 -67 54z"/>
<path d="M3102 2973 c-5 -10 -12 -44 -15 -76 -3 -31 -17 -82 -31 -112 l-25
-55 26 -20 c36 -28 83 -25 198 10 101 31 165 37 210 20 34 -13 62 2 72 38 10
36 5 52 -20 81 -36 39 -95 61 -166 61 -60 0 -66 -2 -97 -35 -33 -35 -34 -35
-39 -13 -3 13 -5 39 -3 58 3 33 1 35 -32 38 -19 2 -39 8 -44 13 -15 13 -24 11
-34 -8z"/>
<path d="M4855 2893 c-3 -10 -6 -180 -4 -378 1 -198 -2 -368 -6 -377 -20 -47
-51 3 -95 152 -29 99 -38 114 -55 100 -16 -13 -34 -5 -99 42 -48 35 -56 35
-81 -1 -56 -80 -160 -135 -216 -114 -26 10 -31 9 -36 -5 -11 -30 -46 -62 -69
-62 -34 0 -65 14 -117 54 -26 20 -53 36 -61 36 -22 0 -41 -57 -28 -84 23 -50
127 -106 196 -106 46 0 72 23 85 75 6 25 15 45 21 45 22 0 98 -62 104 -85 13
-53 -37 -214 -101 -323 -25 -42 -63 -106 -84 -142 -37 -63 -184 -218 -241
-254 -16 -10 -35 -15 -47 -11 -22 7 -41 53 -41 99 0 27 -18 48 -129 156 -139
135 -161 163 -179 227 -25 84 -79 114 -128 68 l-28 -26 24 -45 c14 -25 49 -74
77 -111 29 -36 69 -98 88 -138 57 -120 170 -227 279 -266 27 -10 42 -22 48
-41 8 -22 16 -28 38 -28 33 0 59 19 168 122 82 78 105 89 95 45 -21 -93 -69
-201 -131 -295 l-35 -53 -24 23 c-21 19 -35 23 -93 23 -65 0 -71 -2 -104 -34
-65 -63 -100 -213 -77 -334 10 -55 9 -59 -19 -103 l-28 -46 -75 128 -75 127
79 118 c43 65 79 123 79 129 0 6 -32 10 -82 10 l-83 0 -55 -92 -55 -92 -3 257
-2 257 -60 0 -60 0 0 -444 0 -444 27 -5 c50 -9 87 3 116 41 32 42 32 76 0 80
-20 3 -23 9 -23 50 l0 47 62 -107 62 -107 70 -3 70 -3 9 -38 c18 -77 -26 -128
-183 -213 -58 -31 -123 -73 -145 -93 -22 -20 -70 -57 -107 -81 -105 -69 -90
-78 49 -29 277 98 538 248 781 451 77 64 82 67 82 44 0 -25 3 -26 55 -26 l55
0 0 83 c0 73 3 86 22 103 11 10 54 58 93 106 l73 86 6 -40 c11 -65 30 -92 85
-118 55 -25 74 -57 51 -85 -18 -21 -42 -19 -84 10 -26 17 -38 21 -41 12 -23
-63 -35 -102 -35 -113 0 -7 20 -25 45 -40 38 -22 55 -26 96 -22 87 9 138 81
139 198 0 87 -21 127 -86 161 -42 22 -49 30 -49 55 0 26 3 29 30 28 17 0 37
-4 46 -8 12 -5 19 5 32 47 9 30 17 57 17 61 0 11 -67 36 -99 36 l-29 0 54 98
c178 320 277 684 300 1098 7 135 -3 208 -56 375 -31 101 -52 134 -65 102z
m-870 -1813 c3 -6 -3 -24 -15 -40 -15 -22 -30 -30 -50 -30 -28 0 -29 1 -19 27
6 15 15 33 21 40 12 15 54 17 63 3z m15 -449 c0 -2 -29 -32 -64 -67 -56 -54
-187 -144 -210 -144 -15 0 61 97 121 155 57 55 66 60 108 60 25 0 45 -2 45 -4z"/>
<path d="M3007 1222 c-40 -5 -92 -62 -118 -129 -32 -82 -32 -243 0 -325 31
-80 86 -128 146 -128 35 0 52 6 70 25 23 22 25 23 25 5 0 -18 7 -20 65 -20
l65 0 0 280 0 280 -65 0 c-54 0 -65 -3 -65 -17 0 -15 -1 -15 -19 1 -23 21 -67
33 -104 28z m97 -203 c22 -25 26 -41 26 -89 0 -48 -4 -64 -26 -89 -14 -17 -32
-31 -40 -31 -23 0 -52 36 -64 79 -13 49 1 112 31 142 27 27 43 24 73 -12z"/>
<path d="M2452 983 c3 -207 5 -232 24 -268 29 -57 90 -88 167 -83 71 5 104 27
137 94 24 47 25 58 28 267 l4 217 -66 0 -66 0 0 -177 c0 -197 -7 -226 -53
-231 -47 -6 -57 38 -57 238 l0 170 -61 0 -60 0 3 -227z"/>
</g>
</svg>
